<svg aria-hidden="true" style="position:absolute;width:0;height:0" xmlns="http://www.w3.org/2000/svg" overflow="hidden"><defs><symbol id="menu-dots" viewBox="0 0 20 20"><path d="M10.001 7.8a2.2 2.2 0 100 4.402A2.2 2.2 0 0010 7.8zm0-2.6A2.2 2.2 0 109.999.8a2.2 2.2 0 00.002 4.4zm0 9.6a2.2 2.2 0 100 4.402 2.2 2.2 0 000-4.402z"/></symbol><symbol id="menu-close" viewBox="0 0 20 20"><path d="M10 8.586L2.929 1.515 1.515 2.929 8.586 10l-7.071 7.071 1.414 1.414L10 11.414l7.071 7.071 1.414-1.414L11.414 10l7.071-7.071-1.414-1.414L10 8.586z"/></symbol><symbol id="menu-burger" viewBox="0 0 20 20"><path d="M0 3h20v2H0V3zm0 6h20v2H0V9zm0 6h20v2H0v-2z"/></symbol></defs></svg>